<?xml version="1.0" standalone="no"?>
<!DOCTYPE svg PUBLIC "-//W3C//DTD SVG 20010904//EN"
 "http://www.w3.org/TR/2001/REC-SVG-20010904/DTD/svg10.dtd">
<svg version="1.0" xmlns="http://www.w3.org/2000/svg"
 width="349.000000pt" height="179.000000pt" viewBox="0 0 349.000000 179.000000"
 preserveAspectRatio="xMidYMid meet">
<metadata>
Created by potrace 1.16, written by Peter Selinger 2001-2019
</metadata>
<g transform="translate(0.000000,179.000000) scale(0.100000,-0.100000)"
fill="#000000" stroke="none">
<path d="M1467 1553 c-12 -18 -92 -41 -227 -64 -168 -28 -224 -50 -282 -110
-27 -27 -48 -53 -48 -58 0 -11 149 -25 270 -25 109 0 163 19 220 75 41 42 82
129 78 166 -2 17 -6 23 -11 16z"/>
<path d="M1960 1337 c0 -133 3 -188 12 -193 6 -4 98 -10 203 -14 185 -6 192
-7 255 -36 36 -17 83 -49 106 -72 l41 -41 33 34 c18 18 60 48 94 66 59 32 65
33 231 40 93 5 189 11 213 14 l42 6 0 191 0 190 -27 -7 c-15 -3 -116 -10 -223
-14 -184 -7 -199 -9 -255 -35 -33 -15 -69 -36 -81 -47 -21 -20 -21 -20 -74 16
-74 50 -132 62 -320 69 -91 3 -184 9 -207 12 l-43 7 0 -186z"/>
<path d="M802 1397 c-105 -44 -205 -157 -241 -272 -19 -63 -38 -205 -27 -205
4 0 13 15 21 33 23 56 103 136 169 169 83 42 211 51 301 20 33 -11 61 -19 63
-17 2 2 -16 23 -40 48 -56 58 -130 82 -230 74 -37 -3 -68 -4 -68 -1 0 17 48
93 82 130 46 50 44 52 -30 21z"/>
<path d="M490 1256 c-36 -29 -64 -60 -64 -69 1 -9 -2 -14 -7 -12 -14 10 -72
-87 -101 -169 -94 -272 46 -568 324 -684 341 -142 735 38 822 374 16 62 22
235 7 184 -37 -121 -178 -282 -305 -347 -155 -80 -330 -79 -489 4 -219 115
-300 398 -186 651 15 34 37 76 49 92 12 17 20 30 18 30 -2 0 -32 -24 -68 -54z"/>
<path d="M2196 963 c11 -23 14 -95 14 -385 l0 -358 160 0 160 0 0 280 c0 266
-1 283 -21 323 -29 57 -65 94 -119 122 -44 22 -138 45 -186 45 -22 0 -22 -1
-8 -27z"/>
<path d="M2805 965 c-32 -13 -72 -38 -89 -54 l-30 -30 19 -41 c10 -23 37 -57
59 -76 38 -33 64 -43 191 -73 54 -13 126 -50 132 -67 2 -6 -20 -21 -48 -35
-98 -45 -219 -24 -326 58 l-43 33 0 -205 0 -205 38 -19 c98 -50 246 -69 337
-43 22 6 65 26 95 44 l55 33 3 268 c2 247 1 270 -17 305 -45 87 -126 132 -241
132 -57 0 -90 -6 -135 -25z"/>
<path d="M756 955 c-171 -61 -164 -296 10 -340 133 -34 251 50 247 176 -2 79
-44 136 -122 164 -53 18 -84 18 -135 0z"/>
</g>
</svg>
